<?xml version="1.0" encoding="UTF-8"?><svg id="Layer_2" xmlns="http://www.w3.org/2000/svg" viewBox="0 0 88.83 88.83"><defs><style>.cls-1{stroke-width:0px;}</style></defs><g id="Layer_1-2"><path class="cls-1" d="M16.77,1v17.77h17.77v17.77h17.77v17.77h17.77v17.77h17.77v15.77H1V1h15.77M17.77,0H0v88.83h88.83v-17.77h-17.77v-17.77h-17.77v-17.77h-17.77v-17.77h-17.77V0h0Z"/><path class="cls-1" d="M27,55c9.05,0,16.42,7.36,16.42,16.42v16.42H10.58v-16.42c0-9.05,7.36-16.42,16.42-16.42M27,54c-9.62,0-17.42,7.8-17.42,17.42v17.42h34.83v-17.42c0-9.62-7.8-17.42-17.42-17.42h0Z"/><path class="cls-1" d="M13.13,40.16c.92,1.83,2.42,3.33,4.25,4.25-1.83.92-3.33,2.42-4.25,4.25-.92-1.83-2.42-3.33-4.25-4.25,1.83-.92,3.33-2.42,4.25-4.25M13.13,35.93c0,4.69-3.8,8.49-8.49,8.49h0c4.69,0,8.49,3.8,8.49,8.49,0-4.69,3.8-8.49,8.49-8.49h0c-4.69,0-8.49-3.8-8.49-8.49h0Z"/></g></svg>