<?xml version="1.0" encoding="UTF-8"?><svg id="Layer_2" xmlns="http://www.w3.org/2000/svg" viewBox="0 0 61.86 90.05"><defs><style>.cls-1{stroke-width:0px;}</style></defs><g id="Layer_1-2"><path class="cls-1" d="M12.33,13.55c1.35,3.28,3.98,5.91,7.27,7.27-3.28,1.35-5.91,3.98-7.27,7.27-1.35-3.28-3.98-5.91-7.27-7.27,3.28-1.35,5.91-3.98,7.27-7.27M12.33,8.49C12.33,15.3,6.81,20.82,0,20.82h0c6.81,0,12.33,5.52,12.33,12.33,0-6.81,5.52-12.33,12.33-12.33-6.81,0-12.33-5.52-12.33-12.33h0Z"/><path class="cls-1" d="M17.64,65.32c1.64,4.42,5.15,7.93,9.56,9.56-4.42,1.64-7.93,5.15-9.56,9.56-1.64-4.42-5.15-7.93-9.56-9.56,4.42-1.64,7.93-5.15,9.56-9.56M17.64,59.72c0,8.37-6.79,15.16-15.16,15.16,8.37,0,15.16,6.79,15.16,15.16,0-8.37,6.79-15.16,15.16-15.16h0c-8.37,0-15.16-6.79-15.16-15.16h0Z"/><path class="cls-1" d="M31.7,31.71c2.2,7.11,7.82,12.73,14.92,14.92-7.11,2.2-12.73,7.82-14.92,14.92-2.2-7.11-7.82-12.73-14.92-14.92,7.11-2.2,12.73-7.82,14.92-14.92M31.7,25.06c0,11.92-9.66,21.58-21.58,21.58h0c11.92,0,21.58,9.66,21.58,21.58,0-11.92,9.66-21.58,21.58-21.58h0c-11.92,0-21.58-9.66-21.58-21.58h0Z"/><path class="cls-1" d="M26.13,4.24c.92,1.83,2.42,3.33,4.25,4.25-1.83.92-3.33,2.42-4.25,4.25-.92-1.83-2.42-3.33-4.25-4.25,1.83-.92,3.33-2.42,4.25-4.25M26.13,0c0,4.69-3.8,8.49-8.49,8.49,4.69,0,8.49,3.8,8.49,8.49,0-4.69,3.8-8.49,8.49-8.49-4.69,0-8.49-3.8-8.49-8.49h0Z"/><path class="cls-1" d="M53.37,55.47c.92,1.83,2.42,3.33,4.25,4.25-1.83.92-3.33,2.42-4.25,4.25-.92-1.83-2.42-3.33-4.25-4.25,1.83-.92,3.33-2.42,4.25-4.25M53.37,51.24c0,4.69-3.8,8.49-8.49,8.49h0c4.69,0,8.49,3.8,8.49,8.49,0-4.69,3.8-8.49,8.49-8.49h0c-4.69,0-8.49-3.8-8.49-8.49h0Z"/></g></svg>