<?xml version="1.0" encoding="UTF-8"?><svg id="Layer_2" xmlns="http://www.w3.org/2000/svg" viewBox="0 0 125.05 89.15"><defs><style>.cls-1{stroke-width:0px;}</style></defs><g id="Layer_1-2"><path class="cls-1" d="M44.58,9.52c3.73,17.5,17.55,31.32,35.06,35.06-17.5,3.73-31.32,17.55-35.06,35.06-3.73-17.5-17.55-31.32-35.06-35.06,17.5-3.73,31.32-17.55,35.06-35.06M44.58,0c0,24.62-19.96,44.58-44.58,44.58h0c24.62,0,44.58,19.96,44.58,44.58,0-24.62,19.96-44.58,44.58-44.58h0c-24.62,0-44.58-19.96-44.58-44.58h0Z"/><path class="cls-1" d="M62.53,9.52c3.73,17.5,17.55,31.32,35.06,35.06-17.5,3.73-31.32,17.55-35.06,35.06-3.73-17.5-17.55-31.32-35.06-35.06,17.5-3.73,31.32-17.55,35.06-35.06M62.53,0c0,24.62-19.96,44.58-44.58,44.58h0c24.62,0,44.58,19.96,44.58,44.58,0-24.62,19.96-44.58,44.58-44.58h0c-24.62,0-44.58-19.96-44.58-44.58h0Z"/><path class="cls-1" d="M80.48,9.52c3.73,17.5,17.55,31.32,35.06,35.06-17.5,3.73-31.32,17.55-35.06,35.06-3.73-17.5-17.55-31.32-35.06-35.06,17.5-3.73,31.32-17.55,35.06-35.06M80.48,0c0,24.62-19.96,44.58-44.58,44.58h0c24.62,0,44.58,19.96,44.58,44.58,0-24.62,19.96-44.58,44.58-44.58h0c-24.62,0-44.58-19.96-44.58-44.58h0Z"/></g></svg>