<?xml version="1.0" encoding="UTF-8"?><svg id="Layer_2" xmlns="http://www.w3.org/2000/svg" viewBox="0 0 89.41 89.41"><defs><style>.cls-1{stroke-width:0px;}</style></defs><g id="Layer_1-2"><path class="cls-1" d="M44.71,1c24.1,0,43.71,19.61,43.71,43.71s-19.61,43.71-43.71,43.71S1,68.81,1,44.71,20.61,1,44.71,1M44.71,0C20.02,0,0,20.02,0,44.71s20.02,44.71,44.71,44.71,44.71-20.02,44.71-44.71S69.4,0,44.71,0h0Z"/><path class="cls-1" d="M44.71,70c.92,1.83,2.42,3.33,4.25,4.25-1.83.92-3.33,2.42-4.25,4.25-.92-1.83-2.42-3.33-4.25-4.25,1.83-.92,3.33-2.42,4.25-4.25M44.71,65.76c0,4.69-3.8,8.49-8.49,8.49,4.69,0,8.49,3.8,8.49,8.49,0-4.69,3.8-8.49,8.49-8.49-4.69,0-8.49-3.8-8.49-8.49h0Z"/><path class="cls-1" d="M62.6,62.6c.96.32,1.97.48,3,.48s2.05-.16,3-.48c-.64,1.94-.64,4.05,0,6-.96-.32-1.97-.48-3-.48s-2.05.16-3,.48c.64-1.94.64-4.05,0-6M71.6,59.6c-1.66,1.66-3.83,2.49-6,2.49s-4.34-.83-6-2.49c3.31,3.31,3.31,8.69,0,12h0c1.66-1.66,3.83-2.49,6-2.49s4.34.83,6,2.49c-3.31-3.31-3.31-8.69,0-12h0Z"/><path class="cls-1" d="M74.25,40.46c.92,1.83,2.42,3.33,4.25,4.25-1.83.92-3.33,2.42-4.25,4.25-.92-1.83-2.42-3.33-4.25-4.25,1.83-.92,3.33-2.42,4.25-4.25M74.25,36.22c0,4.69-3.8,8.49-8.49,8.49,4.69,0,8.49,3.8,8.49,8.49,0-4.69,3.8-8.49,8.49-8.49-4.69,0-8.49-3.8-8.49-8.49h0Z"/><path class="cls-1" d="M68.6,20.82c-.64,1.94-.64,4.05,0,6-.96-.32-1.97-.48-3-.48s-2.05.16-3,.48c.64-1.94.64-4.05,0-6,.96.32,1.97.48,3,.48s2.05-.16,3-.48M71.6,17.81c-1.66,1.66-3.83,2.49-6,2.49s-4.34-.83-6-2.49c3.31,3.31,3.31,8.69,0,12,1.66-1.66,3.83-2.49,6-2.49s4.34.83,6,2.49c-3.31-3.31-3.31-8.69,0-12h0Z"/><path class="cls-1" d="M44.71,10.91c.92,1.83,2.42,3.33,4.25,4.25-1.83.92-3.33,2.42-4.25,4.25-.92-1.83-2.42-3.33-4.25-4.25,1.83-.92,3.33-2.42,4.25-4.25M44.71,6.68c0,4.69-3.8,8.49-8.49,8.49h0c4.69,0,8.49,3.8,8.49,8.49,0-4.69,3.8-8.49,8.49-8.49h0c-4.69,0-8.49-3.8-8.49-8.49h0Z"/><path class="cls-1" d="M20.81,20.82c.96.32,1.97.48,3,.48s2.05-.16,3-.48c-.64,1.94-.64,4.05,0,6-.96-.32-1.97-.48-3-.48s-2.05.16-3,.48c.64-1.94.64-4.05,0-6M29.82,17.81c-1.66,1.66-3.83,2.49-6,2.49s-4.34-.83-6-2.49c3.31,3.31,3.31,8.69,0,12,1.66-1.66,3.83-2.49,6-2.49s4.34.83,6,2.49c-3.31-3.31-3.31-8.69,0-12h0Z"/><path class="cls-1" d="M15.16,40.46c.92,1.83,2.42,3.33,4.25,4.25-1.83.92-3.33,2.42-4.25,4.25-.92-1.83-2.42-3.33-4.25-4.25,1.83-.92,3.33-2.42,4.25-4.25M15.16,36.22c0,4.69-3.8,8.49-8.49,8.49,4.69,0,8.49,3.8,8.49,8.49,0-4.69,3.8-8.49,8.49-8.49-4.69,0-8.49-3.8-8.49-8.49h0Z"/><path class="cls-1" d="M20.81,62.6c.96.32,1.97.48,3,.48s2.05-.16,3-.48c-.64,1.94-.64,4.05,0,6-.96-.32-1.97-.48-3-.48s-2.05.16-3,.48c.64-1.94.64-4.05,0-6M29.82,59.6c-1.66,1.66-3.83,2.49-6,2.49s-4.34-.83-6-2.49h0c3.31,3.31,3.31,8.69,0,12,1.66-1.66,3.83-2.49,6-2.49s4.34.83,6,2.49c-3.31-3.31-3.31-8.69,0-12h0Z"/></g></svg>