<?xml version="1.0" encoding="UTF-8"?><svg id="Layer_2" xmlns="http://www.w3.org/2000/svg" viewBox="0 0 89.46 89.46"><defs><style>.cls-1{stroke-width:0px;}</style></defs><g id="Layer_1-2"><path class="cls-1" d="M50.79,6.47l-.06,16.72v3.12s1.81-2.53,1.81-2.53l9.78-13.57-5.23,15.89-.97,2.96,2.52-1.84,13.49-9.88-9.88,13.49-1.84,2.52,2.96-.97,15.89-5.23-13.57,9.78-2.53,1.82h3.12s16.72-.07,16.72-.07l-15.92,5.11-2.97.95,2.97.95,15.92,5.11-16.72-.06h-3.12s2.53,1.81,2.53,1.81l13.57,9.78-15.89-5.23-2.96-.97,1.84,2.52,9.88,13.49-13.49-9.88-2.52-1.84.97,2.96,5.23,15.89-9.78-13.57-1.82-2.53v3.12s.07,16.72.07,16.72l-5.11-15.92-.95-2.97-.95,2.97-5.11,15.92.06-16.72v-3.12s-1.81,2.53-1.81,2.53l-9.78,13.57,5.23-15.89.97-2.96-2.52,1.84-13.49,9.88,9.88-13.49,1.84-2.52-2.96.97-15.89,5.23,13.57-9.78,2.53-1.82h-3.12s-16.72.07-16.72.07l15.92-5.11,2.97-.95-2.97-.95-15.92-5.11,16.72.06h3.12s-2.53-1.81-2.53-1.81l-13.57-9.78,15.89,5.23,2.96.97-1.84-2.52-9.88-13.49,13.49,9.88,2.52,1.84-.97-2.96-5.23-15.89,9.78,13.57,1.82,2.53v-3.12s-.07-16.72-.07-16.72l5.11,15.92.95,2.97.95-2.97,5.11-15.92M51.82,0l-7.08,22.09L37.65,0l.09,23.19L24.17,4.38l7.25,22.03L12.71,12.71l13.7,18.71-22.03-7.25,18.82,13.56-23.19-.09,22.09,7.08L0,51.82l23.19-.09-18.82,13.56,22.03-7.25-13.7,18.71,18.71-13.7-7.25,22.03,13.56-18.82-.09,23.19,7.08-22.09,7.08,22.09-.09-23.19,13.56,18.82-7.25-22.03,18.71,13.7-13.7-18.71,22.03,7.25-18.82-13.56,23.19.09-22.09-7.08,22.09-7.08-23.19.09,18.82-13.56-22.03,7.25,13.7-18.71-18.71,13.7,7.25-22.03-13.56,18.82.09-23.19h0Z"/><path class="cls-1" d="M44.73,36.74c1.49,3.8,4.51,6.82,8.31,8.31-3.8,1.49-6.82,4.51-8.31,8.31-1.49-3.8-4.51-6.82-8.31-8.31,3.8-1.49,6.82-4.51,8.31-8.31M44.73,31.42c0,7.53-6.1,13.63-13.63,13.63h0c7.53,0,13.63,6.1,13.63,13.63,0-7.53,6.1-13.63,13.63-13.63h0c-7.53,0-13.63-6.1-13.63-13.63h0Z"/></g></svg>