<svg width="35" height="36" viewBox="0 0 35 36" fill="none" xmlns="http://www.w3.org/2000/svg">
<path fill-rule="evenodd" clip-rule="evenodd" d="M9.79519 35.1521C9.52361 35.4314 9.05105 35.3066 8.95284 34.9296L0.0167018 0.62659C-0.0803383 0.254084 0.262299 -0.0837623 0.633402 0.0185153L33.9835 9.20997C34.3501 9.31099 34.4742 9.76794 34.2092 10.0405L24.5452 19.9806C24.3565 20.1747 24.3565 20.4836 24.5452 20.6777L33.843 30.2412C34.0317 30.4352 34.0317 30.7442 33.843 30.9382L30.1026 34.7856C29.9062 34.9875 29.5819 34.9875 29.3856 34.7856L20.127 25.2625C19.9307 25.0606 19.6064 25.0606 19.41 25.2625L9.79519 35.1521Z" fill="#212024"/>
</svg>
