<svg width="366" height="101" viewBox="0 0 366 101" fill="none" xmlns="http://www.w3.org/2000/svg">
<path d="M20.6818 89.8432H10.3409V79.3225L56.3402 33.3171L24.9608 1.93359H0V26.7195L24.2477 50.9704L0 75.2213V100.185H24.9608L41.1854 83.9588L33.8754 76.6478L20.6818 89.8432ZM10.5192 22.4399V12.2759H21.0384L42.0768 33.3171L31.7359 43.6594L10.5192 22.4399Z" fill="black"/>
<path d="M98.2387 75.2213L73.9911 50.9704L98.0604 26.8978V1.93362H73.0996L56.875 18.1604L64.185 25.4713L77.3786 12.2759H87.5412V22.7966L41.7203 68.802L73.0996 100.186H98.0604V75.2213H98.2387ZM56.3402 68.6236L66.6811 58.2814L87.8978 79.5009V89.8432H77.3786L56.3402 68.6236Z" fill="black"/>
<path d="M134.545 33.3546V26.9009H122.88L127.676 22.8996C131.65 19.5867 134.285 16.0587 134.285 11.7132C134.285 4.91525 129.922 1 122.621 1C115.579 1 111 5.64667 111 12.7888H117.955C117.955 9.21773 119.683 7.19557 122.664 7.19557C125.516 7.19557 127.114 8.91656 127.114 12.1434C127.114 14.7679 125.688 16.7471 122.275 19.5437L111.734 28.2777V33.4407L134.545 33.3546Z" fill="black"/>
<path d="M147.601 18.4681C151.36 18.4681 152.829 20.6193 152.829 23.1578C152.829 25.9974 150.971 27.8475 148.249 27.8475C145.441 27.8475 143.54 26.1695 143.54 23.0287H136.628C136.628 30.2138 141.856 34 148.077 34C154.557 34 160 29.9126 160 23.2008C160 17.7797 156.501 14.3377 152.181 13.0469L158.92 7.15254V1.60235H138.097V7.71186H150.15L143.195 13.7784C143.108 13.8644 143.022 13.9074 142.936 13.9935V18.4681H147.601Z" fill="black"/>
<path d="M191.214 0.759997H187.002V20H191.214V0.759997Z" fill="black"/>
<path d="M199.649 20V7.78L207.761 20H211.921V0.759997H207.761V13.006L199.649 0.759997H195.489V20H199.649Z" fill="black"/>
<path d="M214.706 4.66H220.166V20H224.378V4.66H229.838V0.759997H214.706V4.66Z" fill="black"/>
<path d="M244.842 20V16.1H236.834V12.122H243.932V8.43H236.834V4.66H244.842V0.759997H232.622V20H244.842Z" fill="black"/>
<path d="M252.76 20V13.266H256.01L258.896 20H263.498L260.118 12.356C262.25 11.264 263.316 9.496 263.316 7C263.316 3.022 260.664 0.759997 255.984 0.759997H248.548V20H252.76ZM252.76 4.504H255.984C257.856 4.504 258.87 5.388 258.87 7C258.87 8.638 257.804 9.574 255.958 9.574H252.76V4.504Z" fill="black"/>
<path d="M269.334 20L270.712 15.944H276.926L278.278 20H282.75L275.912 0.759997H271.804L264.94 20H269.334ZM273.312 8.3C273.546 7.598 273.754 6.87 273.832 6.428C273.91 6.896 274.144 7.65 274.352 8.3L275.73 12.408H271.934L273.312 8.3Z" fill="black"/>
<path d="M292.528 20.312C297.338 20.312 300.926 17.478 301.602 13.188H297.234C296.714 15.086 294.972 16.256 292.606 16.256C289.512 16.256 287.588 13.994 287.588 10.38C287.588 6.714 289.486 4.504 292.606 4.504C294.92 4.504 296.558 5.596 297.13 7.52H301.576C300.978 3.204 297.52 0.447997 292.71 0.447997C286.964 0.447997 283.142 4.4 283.142 10.406C283.142 16.49 286.756 20.312 292.528 20.312Z" fill="black"/>
<path d="M302.156 4.66H307.616V20H311.828V4.66H317.288V0.759997H302.156V4.66Z" fill="black"/>
<path d="M324.284 0.759997H320.072V20H324.284V0.759997Z" fill="black"/>
<path d="M346.343 10.354C346.343 4.478 342.495 0.421997 336.905 0.421997C331.341 0.421997 327.493 4.504 327.493 10.38C327.493 16.256 331.315 20.312 336.879 20.312C342.469 20.312 346.343 16.23 346.343 10.354ZM341.897 10.354C341.897 13.994 340.025 16.256 336.931 16.256C333.811 16.256 331.939 14.046 331.939 10.354C331.939 6.688 333.811 4.478 336.931 4.478C340.025 4.478 341.897 6.688 341.897 10.354Z" fill="black"/>
<path d="M353.698 20V7.78L361.81 20H365.97V0.759997H361.81V13.006L353.698 0.759997H349.538V20H353.698Z" fill="black"/>
<path d="M189.628 48L191.006 43.944H197.22L198.572 48H203.044L196.206 28.76H192.098L185.234 48H189.628ZM193.606 36.3C193.84 35.598 194.048 34.87 194.126 34.428C194.204 34.896 194.438 35.65 194.646 36.3L196.024 40.408H192.228L193.606 36.3Z" fill="black"/>
<path d="M207.494 48H211.628L215.242 35.364L218.752 48H222.86L228.736 28.76H224.446L221.872 37.158C221.534 38.276 221.248 39.342 220.858 41.292C220.52 39.446 220.208 38.276 219.896 37.106L217.634 28.76H212.928L210.562 37.106C210.224 38.302 209.912 39.394 209.6 41.292C209.288 39.394 208.976 38.25 208.638 37.106L206.116 28.76H201.722L207.494 48Z" fill="black"/>
<path d="M231.814 48L233.192 43.944H239.406L240.758 48H245.23L238.392 28.76H234.284L227.42 48H231.814ZM235.792 36.3C236.026 35.598 236.234 34.87 236.312 34.428C236.39 34.896 236.624 35.65 236.832 36.3L238.21 40.408H234.414L235.792 36.3Z" fill="black"/>
<path d="M251.941 48V41.266H255.191L258.077 48H262.679L259.299 40.356C261.431 39.264 262.497 37.496 262.497 35C262.497 31.022 259.845 28.76 255.165 28.76H247.729V48H251.941ZM251.941 32.504H255.165C257.037 32.504 258.051 33.388 258.051 35C258.051 36.638 256.985 37.574 255.139 37.574H251.941V32.504Z" fill="black"/>
<path d="M273.43 48C278.916 48 282.738 44.048 282.738 38.432C282.738 32.712 278.812 28.76 273.17 28.76H265.89V48H273.43ZM272.754 32.66C276.238 32.66 278.292 34.792 278.292 38.432C278.292 41.994 276.342 44.1 273.014 44.1H270.102V32.66H272.754Z" fill="black"/>
<path d="M284.863 34.35C284.863 37.496 286.631 39.446 290.063 40.148L293.001 40.746C294.275 41.006 294.769 41.552 294.769 42.618C294.769 43.84 293.573 44.594 291.675 44.594C289.803 44.594 288.763 43.814 288.763 42.41H284.577C284.577 46.024 287.359 48.338 291.649 48.338C296.069 48.338 298.981 45.92 298.981 42.202C298.981 39.16 297.343 37.522 293.911 36.82L291.025 36.222C289.673 35.936 289.075 35.364 289.075 34.194C289.075 32.92 290.167 32.14 291.883 32.14C293.469 32.14 294.483 32.972 294.483 34.324H298.669C298.669 30.684 296.069 28.396 291.935 28.396C287.801 28.396 284.863 30.866 284.863 34.35Z" fill="black"/>
<path d="M185.936 62.35C185.936 65.496 187.704 67.446 191.136 68.148L194.074 68.746C195.348 69.006 195.842 69.552 195.842 70.618C195.842 71.84 194.646 72.594 192.748 72.594C190.876 72.594 189.836 71.814 189.836 70.41H185.65C185.65 74.024 188.432 76.338 192.722 76.338C197.142 76.338 200.054 73.92 200.054 70.202C200.054 67.16 198.416 65.522 194.984 64.82L192.098 64.222C190.746 63.936 190.148 63.364 190.148 62.194C190.148 60.92 191.24 60.14 192.956 60.14C194.542 60.14 195.556 60.972 195.556 62.324H199.742C199.742 58.684 197.142 56.396 193.008 56.396C188.874 56.396 185.936 58.866 185.936 62.35Z" fill="black"/>
<path d="M207.318 76V68.252H214.754V76H218.966V56.76H214.754V64.352H207.318V56.76H203.106V76H207.318Z" fill="black"/>
<path d="M241.005 66.354C241.005 60.478 237.157 56.422 231.567 56.422C226.003 56.422 222.155 60.504 222.155 66.38C222.155 72.256 225.977 76.312 231.541 76.312C237.131 76.312 241.005 72.23 241.005 66.354ZM236.559 66.354C236.559 69.994 234.687 72.256 231.593 72.256C228.473 72.256 226.601 70.046 226.601 66.354C226.601 62.688 228.473 60.478 231.593 60.478C234.687 60.478 236.559 62.688 236.559 66.354Z" fill="black"/>
<path d="M248.412 76V69.266H251.662L254.548 76H259.15L255.77 68.356C257.902 67.264 258.968 65.496 258.968 63C258.968 59.022 256.316 56.76 251.636 56.76H244.2V76H248.412ZM248.412 60.504H251.636C253.508 60.504 254.522 61.388 254.522 63C254.522 64.638 253.456 65.574 251.61 65.574H248.412V60.504Z" fill="black"/>
<path d="M260.624 60.66H266.084V76H270.296V60.66H275.756V56.76H260.624V60.66Z" fill="black"/>
<path d="M282.752 56.76H278.54V76H290.344V72.1H282.752V56.76Z" fill="black"/>
<path d="M297.46 56.76H293.248V76H297.46V56.76Z" fill="black"/>
<path d="M300.668 62.35C300.668 65.496 302.436 67.446 305.868 68.148L308.806 68.746C310.08 69.006 310.574 69.552 310.574 70.618C310.574 71.84 309.378 72.594 307.48 72.594C305.608 72.594 304.568 71.814 304.568 70.41H300.382C300.382 74.024 303.164 76.338 307.454 76.338C311.874 76.338 314.786 73.92 314.786 70.202C314.786 67.16 313.148 65.522 309.716 64.82L306.83 64.222C305.478 63.936 304.88 63.364 304.88 62.194C304.88 60.92 305.972 60.14 307.688 60.14C309.274 60.14 310.288 60.972 310.288 62.324H314.474C314.474 58.684 311.874 56.396 307.74 56.396C303.606 56.396 300.668 58.866 300.668 62.35Z" fill="black"/>
<path d="M316.102 60.66H321.562V76H325.774V60.66H331.234V56.76H316.102V60.66Z" fill="black"/>
</svg>
